<?xml version="1.0" encoding="UTF-8"?>
<!DOCTYPE svg PUBLIC "-//W3C//DTD SVG 1.1//EN" "http://www.w3.org/Graphics/SVG/1.1/DTD/svg11.dtd">
<svg version="1.1" xmlns="http://www.w3.org/2000/svg" xmlns:xlink="http://www.w3.org/1999/xlink" x="0" y="0" width="550" height="170" viewBox="0, 0, 550, 170">
  <g id="Layer_1" display="none">
    <path d="M0.762,-0 L550,-0 L550,170 L0.762,170 z" fill="#000000"/>
  </g>
  <g id="Layer_2">
    <path d="M675.5,138.5 L955.5,138.5" fill-opacity="0" stroke="#E2C200" stroke-width="4"/>
    <path d="M-11.918,426.5 L0.762,426.5 L0.762,419.633 C0.762,415.316 -2.737,411.817 -7.054,411.817 L-11.918,411.817 z" fill="#E2C200"/>
    <path d="M-27,428.902 L-27,444.31 C-27,448.627 -23.501,452.127 -19.184,452.127 L-7.053,452.127 C-2.737,452.127 0.762,448.627 0.762,444.31 L0.762,428.902 z" fill="#E2C200"/>
    <path d="M-14.32,426.5 L-14.32,411.817 L-19.184,411.817 C-23.501,411.817 -27,415.316 -27,419.633 L-27,426.5 z" fill="#E2C200"/>
    <text transform="matrix(1, 0, 0, 1, 1041, 141)">
      <tspan x="-55.776" y="-0.75" font-family="AGaramondPro-Regular" font-size="22" fill="#FFFFFF">Content</tspan>
    </text>
    <path d="M645.5,88.5 L885.5,88.5" fill-opacity="0" stroke="#FFFFFF" stroke-width="4"/>
    <text transform="matrix(1, 0, 0, 1, 971, 91)">
      <tspan x="-55.776" y="-0.75" font-family="AGaramondPro-Regular" font-size="22" fill="#FFFFFF">Tray</tspan>
    </text>
    <path d="M605.5,38.5 L845.5,38.5" fill-opacity="0" stroke="#E2C200" stroke-width="4" stroke-dasharray="12,8"/>
    <text transform="matrix(1, 0, 0, 1, 911, 41)">
      <tspan x="-55.776" y="-0.75" font-family="AGaramondPro-Regular" font-size="22" fill="#FFFFFF">Overlay</tspan>
    </text>
    <text transform="matrix(1, 0, 0, 1, 1262.662, 137.5)">
      <tspan x="-187.438" y="4" font-family="Helvetica" font-size="12" fill="#555555">(Items that are on the visual base of the page.)</tspan>
    </text>
    <text transform="matrix(1, 0, 0, 1, 1152.662, 87.5)">
      <tspan x="-187.438" y="4" font-family="Helvetica" font-size="12" fill="#555555">(Content creation, editing, or management. The "working" layer.)</tspan>
    </text>
    <text transform="matrix(1, 0, 0, 1, 1179.662, 45)">
      <tspan x="-244.438" y="-3.5" font-family="Helvetica" font-size="12" fill="#555555">(Used when the user **MUST** make a process decsion. )</tspan>
    </text>
  </g>
  <g id="Layer_3">
    <path d="M41.5,138 L500.5,138" fill-opacity="0" stroke="#E2C200" stroke-width="4"/>
    <path d="M96.5,88 L153.5,88" fill-opacity="0" stroke="#FFFFFF" stroke-width="4"/>
    <path d="M326.5,38 L383.5,38" fill-opacity="0" stroke="#E2C200" stroke-width="4" stroke-dasharray="12,8"/>
    <path d="M156.5,88 L212.5,138.5" fill-opacity="0" stroke="#FFFFFF" stroke-width="4"/>
    <path d="M446.5,88 L502.5,138.5" fill-opacity="0" stroke="#FFFFFF" stroke-width="4"/>
    <path d="M41.5,138 L96.5,88" fill-opacity="0" stroke="#FFFFFF" stroke-width="4"/>
    <path d="M266.5,88 L443.5,88" fill-opacity="0" stroke="#FFFFFF" stroke-width="4"/>
    <path d="M211.5,138 L266.5,88" fill-opacity="0" stroke="#FFFFFF" stroke-width="4"/>
    <path d="M386.5,38 L442.5,88.5" fill-opacity="0" stroke="#E2C200" stroke-width="4" stroke-dasharray="12,8"/>
    <path d="M271.5,88 L326.5,38" fill-opacity="0" stroke="#E2C200" stroke-width="4" stroke-dasharray="12,8"/>
    <path d="M39,145.5 C34.582,145.5 31,141.918 31,137.5 C31,133.082 34.582,129.5 39,129.5 C43.418,129.5 47,133.082 47,137.5 C47,141.918 43.418,145.5 39,145.5 z" fill="#E2C200"/>
    <path d="M96.5,95.5 C92.082,95.5 88.5,91.918 88.5,87.5 C88.5,83.082 92.082,79.5 96.5,79.5 C100.918,79.5 104.5,83.082 104.5,87.5 C104.5,91.918 100.918,95.5 96.5,95.5 z" fill="#FFFFFF"/>
    <path d="M154,95.5 C149.582,95.5 146,91.918 146,87.5 C146,83.082 149.582,79.5 154,79.5 C158.418,79.5 162,83.082 162,87.5 C162,91.918 158.418,95.5 154,95.5 z" fill="#FFFFFF"/>
    <path d="M211.5,145.5 C207.082,145.5 203.5,141.918 203.5,137.5 C203.5,133.082 207.082,129.5 211.5,129.5 C215.918,129.5 219.5,133.082 219.5,137.5 C219.5,141.918 215.918,145.5 211.5,145.5 z" fill="#E2C200"/>
    <path d="M269,95.5 C264.582,95.5 261,91.918 261,87.5 C261,83.082 264.582,79.5 269,79.5 C273.418,79.5 277,83.082 277,87.5 C277,91.918 273.418,95.5 269,95.5 z" fill="#FFFFFF"/>
    <path d="M326.5,45.5 C322.082,45.5 318.5,41.918 318.5,37.5 C318.5,33.082 322.082,29.5 326.5,29.5 C330.918,29.5 334.5,33.082 334.5,37.5 C334.5,41.918 330.918,45.5 326.5,45.5 z" fill="#E2C200"/>
    <path d="M384,45.5 C379.582,45.5 376,41.918 376,37.5 C376,33.082 379.582,29.5 384,29.5 C388.418,29.5 392,33.082 392,37.5 C392,41.918 388.418,45.5 384,45.5 z" fill="#E2C200"/>
    <path d="M441.5,95.5 C437.082,95.5 433.5,91.918 433.5,87.5 C433.5,83.082 437.082,79.5 441.5,79.5 C445.918,79.5 449.5,83.082 449.5,87.5 C449.5,91.918 445.918,95.5 441.5,95.5 z" fill="#FFFFFF"/>
    <path d="M499,145.5 C494.582,145.5 491,141.918 491,137.5 C491,133.082 494.582,129.5 499,129.5 C503.418,129.5 507,133.082 507,137.5 C507,141.918 503.418,145.5 499,145.5 z" fill="#E2C200"/>
  </g>
</svg>
