<?xml version="1.0" encoding="UTF-8"?>
<!DOCTYPE svg PUBLIC "-//W3C//DTD SVG 1.1//EN" "http://www.w3.org/Graphics/SVG/1.1/DTD/svg11.dtd">
<svg version="1.1" xmlns="http://www.w3.org/2000/svg" xmlns:xlink="http://www.w3.org/1999/xlink" x="0" y="0" width="550" height="200" viewBox="0, 0, 550, 200">
  <g id="Layer_1" display="none">
    <path d="M-0,0 L550,0 L550,200 L-0,200 z" fill="#2B2B2B"/>
  </g>
  <g id="Layer_3">
    <path d="M18.5,100.5 L213.5,100.5 C217.918,100.5 221.5,104.082 221.5,108.5 L221.5,198.5 C221.5,202.918 217.918,206.5 213.5,206.5 L18.5,206.5 C14.082,206.5 10.5,202.918 10.5,198.5 L10.5,108.5 C10.5,104.082 14.082,100.5 18.5,100.5 z" fill-opacity="0" stroke="#E2C200" stroke-width="4"/>
    <path d="M338.5,100.5 L533.5,100.5 C537.918,100.5 541.5,104.082 541.5,108.5 L541.5,198.5 C541.5,202.918 537.918,206.5 533.5,206.5 L338.5,206.5 C334.082,206.5 330.5,202.918 330.5,198.5 L330.5,108.5 C330.5,104.082 334.082,100.5 338.5,100.5 z" fill-opacity="0" stroke="#E2C200" stroke-width="4"/>
    <g>
      <path d="M270.5,8.697 L348.5,8.697 C352.918,8.697 356.5,12.279 356.5,16.697 L356.5,105.697 C356.5,110.115 352.918,113.697 348.5,113.697 L270.5,113.697 C266.082,113.697 262.5,110.115 262.5,105.697 L262.5,16.697 C262.5,12.279 266.082,8.697 270.5,8.697 z" fill="#2B2B2B"/>
      <path d="M270.5,8.697 L348.5,8.697 C352.918,8.697 356.5,12.279 356.5,16.697 L356.5,105.697 C356.5,110.115 352.918,113.697 348.5,113.697 L270.5,113.697 C266.082,113.697 262.5,110.115 262.5,105.697 L262.5,16.697 C262.5,12.279 266.082,8.697 270.5,8.697 z" fill-opacity="0" stroke="#FFFFFF" stroke-width="4"/>
    </g>
    <g>
      <path d="M251.5,84.5 L226.569,116.555" fill-opacity="0" stroke="#FFFFFF" stroke-width="4"/>
      <path d="M222.78,113.608 L218.71,126.658 L230.358,119.502 z" fill="#FFFFFF" fill-opacity="1" stroke="#FFFFFF" stroke-width="4" stroke-opacity="1"/>
    </g>
    <g>
      <path d="M366.5,84.5 L405.203,118.649" fill-opacity="0" stroke="#FFFFFF" stroke-width="4"/>
      <path d="M402.027,122.249 L414.801,127.118 L408.378,115.05 z" fill="#FFFFFF" fill-opacity="1" stroke="#FFFFFF" stroke-width="4" stroke-opacity="1"/>
    </g>
    <path d="M316.497,73.387 C316.918,74.65 317.181,75.597 317.181,76.176 C317.181,76.702 316.445,77.017 315.34,77.123 L313.814,77.281 C313.445,77.544 313.498,78.386 313.919,78.596 C315.445,78.543 317.444,78.438 319.97,78.438 C322.338,78.438 324.18,78.491 326.337,78.596 C326.6,78.386 326.705,77.544 326.337,77.281 L324.916,77.123 C322.654,76.86 321.97,76.07 320.444,71.545 L313.235,50.392 C312.446,48.077 311.604,45.657 310.92,43.342 C310.815,42.973 310.446,42.868 310.13,42.868 C309.552,43.552 308.657,44.499 307.394,44.868 C307.552,45.709 307.236,46.709 306.5,48.603 L301.133,62.81 C298.923,68.704 297.449,72.124 296.502,74.544 C295.766,76.439 294.608,77.017 293.345,77.123 L291.609,77.281 C291.293,77.544 291.398,78.386 291.714,78.596 C293.135,78.543 295.029,78.438 296.765,78.438 C299.238,78.491 300.87,78.491 302.238,78.596 C302.711,78.386 302.711,77.544 302.343,77.281 L300.607,77.123 C299.344,77.017 299.081,76.702 299.081,76.07 C299.081,75.492 299.449,74.071 300.238,71.703 L302.08,66.178 C302.448,65.073 302.764,64.915 304.079,64.915 L312.025,64.915 C313.603,64.915 313.814,65.073 314.182,66.231 z M307.079,52.392 C307.657,50.813 308.184,49.551 308.341,49.287 L308.447,49.287 C308.762,49.919 309.236,51.34 309.657,52.602 L312.498,61.179 C312.972,62.6 312.867,62.81 311.341,62.81 L304.869,62.81 C303.395,62.81 303.343,62.758 303.764,61.548 z" fill="#FFFFFF"/>
    <g>
      <path d="M440.5,118.697 L518.5,118.697 C522.918,118.697 526.5,122.279 526.5,126.697 L526.5,215.697 C526.5,220.115 522.918,223.697 518.5,223.697 L440.5,223.697 C436.082,223.697 432.5,220.115 432.5,215.697 L432.5,126.697 C432.5,122.279 436.082,118.697 440.5,118.697 z" fill="#2B2B2B"/>
      <path d="M440.5,118.697 L518.5,118.697 C522.918,118.697 526.5,122.279 526.5,126.697 L526.5,215.697 C526.5,220.115 522.918,223.697 518.5,223.697 L440.5,223.697 C436.082,223.697 432.5,220.115 432.5,215.697 L432.5,126.697 C432.5,122.279 436.082,118.697 440.5,118.697 z" fill-opacity="0" stroke="#FFFFFF" stroke-width="4" stroke-dasharray="12,8"/>
    </g>
    <path d="M486.497,183.387 C486.918,184.65 487.181,185.597 487.181,186.176 C487.181,186.702 486.445,187.017 485.34,187.123 L483.814,187.281 C483.445,187.544 483.498,188.386 483.919,188.596 C485.445,188.543 487.444,188.438 489.97,188.438 C492.338,188.438 494.18,188.491 496.337,188.596 C496.6,188.386 496.705,187.544 496.337,187.281 L494.916,187.123 C492.654,186.86 491.97,186.07 490.444,181.545 L483.235,160.392 C482.446,158.077 481.604,155.657 480.92,153.342 C480.815,152.973 480.446,152.868 480.13,152.868 C479.552,153.552 478.657,154.499 477.394,154.868 C477.552,155.709 477.236,156.709 476.5,158.603 L471.133,172.81 C468.923,178.704 467.449,182.124 466.502,184.544 C465.766,186.439 464.608,187.017 463.345,187.123 L461.609,187.281 C461.293,187.544 461.398,188.386 461.714,188.596 C463.135,188.543 465.029,188.438 466.765,188.438 C469.238,188.491 470.87,188.491 472.238,188.596 C472.711,188.386 472.711,187.544 472.343,187.281 L470.607,187.123 C469.344,187.017 469.081,186.702 469.081,186.07 C469.081,185.492 469.449,184.071 470.238,181.703 L472.08,176.178 C472.448,175.073 472.764,174.915 474.079,174.915 L482.025,174.915 C483.603,174.915 483.814,175.073 484.182,176.231 z M477.079,162.392 C477.657,160.813 478.184,159.551 478.341,159.287 L478.447,159.287 C478.762,159.919 479.236,161.34 479.657,162.602 L482.498,171.179 C482.972,172.6 482.867,172.81 481.341,172.81 L474.869,172.81 C473.395,172.81 473.343,172.758 473.764,171.548 z" fill="#FFFFFF"/>
    <g>
      <path d="M120.5,118.697 L198.5,118.697 C202.918,118.697 206.5,122.279 206.5,126.697 L206.5,215.697 C206.5,220.115 202.918,223.697 198.5,223.697 L120.5,223.697 C116.082,223.697 112.5,220.115 112.5,215.697 L112.5,126.697 C112.5,122.279 116.082,118.697 120.5,118.697 z" fill="#2B2B2B"/>
      <path d="M120.5,118.697 L198.5,118.697 C202.918,118.697 206.5,122.279 206.5,126.697 L206.5,215.697 C206.5,220.115 202.918,223.697 198.5,223.697 L120.5,223.697 C116.082,223.697 112.5,220.115 112.5,215.697 L112.5,126.697 C112.5,122.279 116.082,118.697 120.5,118.697 z" fill-opacity="0" stroke="#FFFFFF" stroke-width="4" stroke-dasharray="12,8"/>
    </g>
    <path d="M166.497,183.387 C166.918,184.65 167.181,185.597 167.181,186.176 C167.181,186.702 166.445,187.017 165.34,187.123 L163.814,187.281 C163.445,187.544 163.498,188.386 163.919,188.596 C165.445,188.543 167.444,188.438 169.97,188.438 C172.338,188.438 174.18,188.491 176.337,188.596 C176.6,188.386 176.705,187.544 176.337,187.281 L174.916,187.123 C172.654,186.86 171.97,186.07 170.444,181.545 L163.235,160.392 C162.446,158.077 161.604,155.657 160.92,153.342 C160.815,152.973 160.446,152.868 160.13,152.868 C159.552,153.552 158.657,154.499 157.394,154.868 C157.552,155.709 157.236,156.709 156.5,158.603 L151.133,172.81 C148.923,178.704 147.449,182.124 146.502,184.544 C145.766,186.439 144.608,187.017 143.345,187.123 L141.609,187.281 C141.293,187.544 141.398,188.386 141.714,188.596 C143.135,188.543 145.029,188.438 146.765,188.438 C149.238,188.491 150.87,188.491 152.238,188.596 C152.711,188.386 152.711,187.544 152.343,187.281 L150.607,187.123 C149.344,187.017 149.081,186.702 149.081,186.07 C149.081,185.492 149.449,184.071 150.238,181.703 L152.08,176.178 C152.448,175.073 152.764,174.915 154.079,174.915 L162.025,174.915 C163.603,174.915 163.814,175.073 164.182,176.231 z M157.079,162.392 C157.657,160.813 158.184,159.551 158.341,159.287 L158.447,159.287 C158.762,159.919 159.236,161.34 159.657,162.602 L162.498,171.179 C162.972,172.6 162.867,172.81 161.341,172.81 L154.869,172.81 C153.395,172.81 153.343,172.758 153.764,171.548 z" fill="#FFFFFF"/>
    <path d="M28.04,182.293 C28.04,184.757 28.008,185.301 26.664,185.397 L25.352,185.493 C25.16,185.685 25.192,186.197 25.416,186.293 C26.664,186.229 28.104,186.197 29.256,186.197 C30.376,186.197 31.816,186.229 33.064,186.293 C33.288,186.197 33.32,185.685 33.128,185.493 L31.784,185.397 C30.472,185.301 30.408,184.757 30.408,182.293 L30.408,169.877 C30.408,168.053 30.472,166.453 30.536,165.877 C30.472,165.781 30.344,165.717 30.216,165.717 C29.384,166.261 27.624,167.093 24.936,167.573 C24.68,167.701 24.712,168.149 24.968,168.277 L26.504,168.405 C27.944,168.533 28.04,169.237 28.04,171.413 z" fill="#E2C200"/>
    <path d="M357.144,184.213 C356.312,184.213 356.152,184.149 356.152,183.925 C356.152,183.733 356.44,183.221 359.064,180.213 L361.016,177.973 C363.512,175.093 364.44,172.917 364.44,170.933 C364.44,167.861 362.36,165.717 359.16,165.717 C356.28,165.717 353.752,167.413 352.728,170.229 C352.728,170.645 353.208,170.805 353.496,170.645 C354.36,168.757 355.736,167.445 357.656,167.445 C360.248,167.445 361.656,169.205 361.656,172.117 C361.656,175.541 359.192,178.645 357.08,180.917 C354.712,183.477 353.656,184.565 352.184,185.525 C351.992,185.653 351.832,185.781 351.832,185.877 C351.832,186.133 351.992,186.261 352.056,186.293 C352.76,186.229 353.816,186.197 355.608,186.197 L360.248,186.197 C361.72,186.197 363.064,186.229 364.376,186.293 C364.856,185.653 365.432,183.989 365.848,182.389 C365.72,182.197 365.368,182.101 365.144,182.197 C364.952,182.549 364.728,182.965 364.12,183.509 C363.544,184.021 362.584,184.213 361.112,184.213 z" fill="#E2C200"/>
  </g>
</svg>
