<?xml version="1.0" encoding="UTF-8"?>
<!DOCTYPE svg PUBLIC "-//W3C//DTD SVG 1.1//EN" "http://www.w3.org/Graphics/SVG/1.1/DTD/svg11.dtd">
<svg version="1.1" xmlns="http://www.w3.org/2000/svg" xmlns:xlink="http://www.w3.org/1999/xlink" x="0" y="0" width="550" height="200" viewBox="0, 0, 550, 200">
  <g id="Layer_1" display="none">
    <path d="M0.762,0 L550,0 L550,200 L0.762,200 z" fill="#2B2B2B"/>
  </g>
  <g id="Layer_3">
    <path d="M21.5,138 L530.5,138" fill-opacity="0" stroke="#E2C200" stroke-width="4"/>
    <path d="M76.5,88 L133.5,88" fill-opacity="0" stroke="#FFFFFF" stroke-width="4"/>
    <path d="M356.5,38 L413.5,38" fill-opacity="0" stroke="#E2C200" stroke-width="4" stroke-dasharray="12,8"/>
    <path d="M136.5,88 L192.5,138.5" fill-opacity="0" stroke="#FFFFFF" stroke-width="4"/>
    <path d="M476.5,88 L532.5,138.5" fill-opacity="0" stroke="#FFFFFF" stroke-width="4"/>
    <path d="M21.5,138 L76.5,88" fill-opacity="0" stroke="#FFFFFF" stroke-width="4"/>
    <path d="M296.5,88 L473.5,88" fill-opacity="0" stroke="#FFFFFF" stroke-width="4"/>
    <path d="M241.5,138 L296.5,88" fill-opacity="0" stroke="#FFFFFF" stroke-width="4"/>
    <path d="M416.5,38 L472.5,88.5" fill-opacity="0" stroke="#E2C200" stroke-width="4" stroke-dasharray="12,8"/>
    <path d="M301.5,88 L356.5,38" fill-opacity="0" stroke="#E2C200" stroke-width="4" stroke-dasharray="12,8"/>
    <path d="M19,145.5 C14.582,145.5 11,141.918 11,137.5 C11,133.082 14.582,129.5 19,129.5 C23.418,129.5 27,133.082 27,137.5 C27,141.918 23.418,145.5 19,145.5 z" fill="#E2C200"/>
    <path d="M76.5,95.5 C72.082,95.5 68.5,91.918 68.5,87.5 C68.5,83.082 72.082,79.5 76.5,79.5 C80.918,79.5 84.5,83.082 84.5,87.5 C84.5,91.918 80.918,95.5 76.5,95.5 z" fill="#FFFFFF"/>
    <path d="M134,95.5 C129.582,95.5 126,91.918 126,87.5 C126,83.082 129.582,79.5 134,79.5 C138.418,79.5 142,83.082 142,87.5 C142,91.918 138.418,95.5 134,95.5 z" fill="#FFFFFF"/>
    <path d="M191.5,145.5 C187.082,145.5 183.5,141.918 183.5,137.5 C183.5,133.082 187.082,129.5 191.5,129.5 C195.918,129.5 199.5,133.082 199.5,137.5 C199.5,141.918 195.918,145.5 191.5,145.5 z" fill="#E2C200"/>
    <path d="M241.5,145.5 C237.082,145.5 233.5,141.918 233.5,137.5 C233.5,133.082 237.082,129.5 241.5,129.5 C245.918,129.5 249.5,133.082 249.5,137.5 C249.5,141.918 245.918,145.5 241.5,145.5 z" fill="#E2C200"/>
    <path d="M299,95.5 C294.582,95.5 291,91.918 291,87.5 C291,83.082 294.582,79.5 299,79.5 C303.418,79.5 307,83.082 307,87.5 C307,91.918 303.418,95.5 299,95.5 z" fill="#FFFFFF"/>
    <path d="M356.5,45.5 C352.082,45.5 348.5,41.918 348.5,37.5 C348.5,33.082 352.082,29.5 356.5,29.5 C360.918,29.5 364.5,33.082 364.5,37.5 C364.5,41.918 360.918,45.5 356.5,45.5 z" fill="#E2C200"/>
    <path d="M414,45.5 C409.582,45.5 406,41.918 406,37.5 C406,33.082 409.582,29.5 414,29.5 C418.418,29.5 422,33.082 422,37.5 C422,41.918 418.418,45.5 414,45.5 z" fill="#E2C200"/>
    <path d="M471.5,95.5 C467.082,95.5 463.5,91.918 463.5,87.5 C463.5,83.082 467.082,79.5 471.5,79.5 C475.918,79.5 479.5,83.082 479.5,87.5 C479.5,91.918 475.918,95.5 471.5,95.5 z" fill="#FFFFFF"/>
    <path d="M529,145.5 C524.582,145.5 521,141.918 521,137.5 C521,133.082 524.582,129.5 529,129.5 C533.418,129.5 537,133.082 537,137.5 C537,141.918 533.418,145.5 529,145.5 z" fill="#E2C200"/>
    <text transform="matrix(1, 0, 0, 1, 104, 171)">
      <tspan x="-31.548" y="-0.75" font-family="AGaramondPro-Regular" font-size="22" fill="#FFFFFF">Modify</tspan>
    </text>
    <text transform="matrix(1, 0, 0, 1, 211.663, 187.5)" opacity="0.5">
      <tspan x="-187.438" y="4" font-family="Helvetica" font-size="12" fill="#E2C200">Click data</tspan>
      <tspan x="-134.751" y="4" font-family="Helvetica" font-size="12" fill="#555555">, </tspan>
      <tspan x="-128.083" y="4" font-family="Helvetica" font-size="12" fill="#FFFFFF">alter variables, Save</tspan>
      <tspan x="-19.362" y="4" font-family="Helvetica" font-size="12" fill="#555555">.</tspan>
    </text>
    <text transform="matrix(1, 0, 0, 1, 384, 166.875)">
      <tspan x="-70.708" y="3.375" font-family="AGaramondPro-Regular" font-size="22" fill="#FFFFFF">Alert Interaction</tspan>
    </text>
    <text transform="matrix(1, 0, 0, 1, 414.663, 187.5)" opacity="0.5">
      <tspan x="-187.438" y="4" font-family="Helvetica" font-size="12" fill="#E2C200">Click data</tspan>
      <tspan x="-134.751" y="4" font-family="Helvetica" font-size="12" fill="#555555">, </tspan>
      <tspan x="-128.083" y="4" font-family="Helvetica" font-size="12" fill="#FFFFFF">alter variables,</tspan>
      <tspan x="-50.048" y="4" font-family="Helvetica" font-size="12" fill="#555555"> </tspan>
      <tspan x="-46.714" y="4" font-family="Helvetica" font-size="12" fill="#E2C200">alert served, confirm alert</tspan>
      <tspan x="88.667" y="4" font-family="Helvetica" font-size="12" fill="#FFFFFF">, Save.</tspan>
    </text>
  </g>
</svg>
